<svg width="176" height="50" viewBox="0 0 176 50" fill="none" xmlns="http://www.w3.org/2000/svg">
	<path fill-rule="evenodd" clip-rule="evenodd" d="M4.16667 25C4.16667 36.5059 13.4941 45.8333 25 45.8333C36.5059 45.8333 45.8333 36.5059 45.8333 25C45.8333 13.4941 36.5059 4.16667 25 4.16667C13.4941 4.16667 4.16667 13.4941 4.16667 25ZM25 0C11.1929 0 0 11.1929 0 25C0 38.8071 11.1929 50 25 50C38.8071 50 50 38.8071 50 25C50 11.1929 38.8071 0 25 0Z" fill="#26619B" />
	<path fill-rule="evenodd" clip-rule="evenodd" d="M29.1667 25C29.1667 36.5059 38.4941 45.8333 50 45.8333C61.5059 45.8333 70.8333 36.5059 70.8333 25C70.8333 13.4941 61.5059 4.16667 50 4.16667C38.4941 4.16667 29.1667 13.4941 29.1667 25ZM50 0C36.1929 0 25 11.1929 25 25C25 38.8071 36.1929 50 50 50C63.8071 50 75 38.8071 75 25C75 11.1929 63.8071 0 50 0Z" fill="#26619B" />
	<path d="M99.0001 14.4999V31.6999C99.0001 32.2554 99.1557 32.6776 99.4668 32.9665C99.7779 33.2554 100.222 33.3999 100.8 33.3999H108.833L109.067 37.2332C107.489 37.411 105.833 37.511 104.1 37.5332C102.389 37.5776 100.678 37.5999 98.9668 37.5999C97.3001 37.5999 96.0335 37.1554 95.1668 36.2665C94.3224 35.3554 93.9001 34.1999 93.9001 32.7999V14.4999H99.0001Z" fill="#26619B" />
	<path d="M120.646 14.0332C122.469 14.0332 124.013 14.2332 125.28 14.6332C126.547 15.011 127.558 15.6554 128.313 16.5665C129.091 17.4554 129.658 18.6776 130.013 20.2332C130.369 21.7665 130.547 23.6888 130.547 25.9999C130.547 28.311 130.369 30.2443 130.013 31.7999C129.658 33.3332 129.091 34.5554 128.313 35.4665C127.558 36.3554 126.547 36.9999 125.28 37.3999C124.013 37.7776 122.469 37.9665 120.646 37.9665C118.824 37.9665 117.28 37.7776 116.013 37.3999C114.747 36.9999 113.724 36.3554 112.947 35.4665C112.169 34.5554 111.602 33.3332 111.247 31.7999C110.891 30.2443 110.713 28.311 110.713 25.9999C110.713 23.6888 110.891 21.7665 111.247 20.2332C111.602 18.6776 112.169 17.4554 112.947 16.5665C113.724 15.6554 114.747 15.011 116.013 14.6332C117.28 14.2332 118.824 14.0332 120.646 14.0332ZM120.646 18.0665C119.469 18.0665 118.546 18.2999 117.88 18.7665C117.235 19.2332 116.769 20.0443 116.48 21.1999C116.213 22.3332 116.08 23.9332 116.08 25.9999C116.08 28.0443 116.213 29.6443 116.48 30.7999C116.769 31.9554 117.235 32.7665 117.88 33.2332C118.546 33.6999 119.469 33.9332 120.646 33.9332C121.802 33.9332 122.702 33.6999 123.347 33.2332C124.013 32.7665 124.48 31.9554 124.746 30.7999C125.035 29.6443 125.18 28.0443 125.18 25.9999C125.18 23.9332 125.035 22.3332 124.746 21.1999C124.48 20.0443 124.013 19.2332 123.347 18.7665C122.702 18.2999 121.802 18.0665 120.646 18.0665Z" fill="#26619B" />
	<path d="M143.929 14.0332C144.929 14.0332 145.84 14.0665 146.662 14.1332C147.485 14.1999 148.262 14.2888 148.996 14.3999C149.751 14.511 150.485 14.6776 151.196 14.8999L150.796 18.5999C150.018 18.5554 149.262 18.5221 148.529 18.4999C147.796 18.4776 147.062 18.4665 146.329 18.4665C145.596 18.4443 144.829 18.4332 144.029 18.4332C143.073 18.4332 142.273 18.5332 141.629 18.7332C141.007 18.9332 140.507 19.311 140.129 19.8665C139.751 20.3999 139.473 21.1776 139.296 22.1999C139.14 23.1999 139.062 24.4888 139.062 26.0665C139.062 27.9776 139.185 29.4776 139.429 30.5665C139.673 31.6554 140.085 32.4332 140.662 32.8999C141.24 33.3443 142.018 33.5665 142.996 33.5665C143.662 33.5665 144.273 33.4999 144.829 33.3665C145.385 33.2332 145.896 33.0554 146.362 32.8332C146.829 32.5888 147.262 32.3554 147.662 32.1332L148.196 34.5332C147.862 34.9999 147.362 35.4999 146.696 36.0332C146.051 36.5665 145.262 37.0221 144.329 37.3999C143.396 37.7776 142.329 37.9665 141.129 37.9665C139.396 37.9665 137.973 37.5554 136.862 36.7332C135.773 35.911 134.973 34.6221 134.462 32.8665C133.951 31.0888 133.696 28.7888 133.696 25.9665C133.696 22.9665 134.018 20.5999 134.662 18.8665C135.329 17.1332 136.407 15.8999 137.896 15.1665C139.407 14.411 141.418 14.0332 143.929 14.0332ZM151.996 24.2332V37.4999H148.229L147.529 33.9999L147.062 33.0665V24.2332H151.996Z" fill="#26619B" />
	<path d="M165.21 14.0332C167.033 14.0332 168.577 14.2332 169.844 14.6332C171.11 15.011 172.121 15.6554 172.877 16.5665C173.655 17.4554 174.221 18.6776 174.577 20.2332C174.933 21.7665 175.11 23.6888 175.11 25.9999C175.11 28.311 174.933 30.2443 174.577 31.7999C174.221 33.3332 173.655 34.5554 172.877 35.4665C172.121 36.3554 171.11 36.9999 169.844 37.3999C168.577 37.7776 167.033 37.9665 165.21 37.9665C163.388 37.9665 161.844 37.7776 160.577 37.3999C159.31 36.9999 158.288 36.3554 157.51 35.4665C156.733 34.5554 156.166 33.3332 155.81 31.7999C155.455 30.2443 155.277 28.311 155.277 25.9999C155.277 23.6888 155.455 21.7665 155.81 20.2332C156.166 18.6776 156.733 17.4554 157.51 16.5665C158.288 15.6554 159.31 15.011 160.577 14.6332C161.844 14.2332 163.388 14.0332 165.21 14.0332ZM165.21 18.0665C164.033 18.0665 163.11 18.2999 162.444 18.7665C161.799 19.2332 161.333 20.0443 161.044 21.1999C160.777 22.3332 160.644 23.9332 160.644 25.9999C160.644 28.0443 160.777 29.6443 161.044 30.7999C161.333 31.9554 161.799 32.7665 162.444 33.2332C163.11 33.6999 164.033 33.9332 165.21 33.9332C166.366 33.9332 167.266 33.6999 167.91 33.2332C168.577 32.7665 169.044 31.9554 169.31 30.7999C169.599 29.6443 169.744 28.0443 169.744 25.9999C169.744 23.9332 169.599 22.3332 169.31 21.1999C169.044 20.0443 168.577 19.2332 167.91 18.7665C167.266 18.2999 166.366 18.0665 165.21 18.0665Z" fill="#26619B" />
</svg>
